<svg xmlns="http://www.w3.org/2000/svg" width="980" height="14" viewBox="0 0 980 14" role="img" aria-label="divider">
  <rect width="980" height="14" fill="#ffffff"/>
  <path d="M0 7 L14 1 L28 7 L42 1 L56 7 L70 1 L84 7 L98 1 L112 7 L126 1 L140 7 L154 1 L168 7 L182 1 L196 7 L210 1 L224 7 L238 1 L252 7 L266 1 L280 7 L294 1 L308 7 L322 1 L336 7 L350 1 L364 7 L378 1 L392 7 L406 1 L420 7 L434 1 L448 7 L462 1 L476 7 L490 1 L504 7 L518 1 L532 7 L546 1 L560 7 L574 1 L588 7 L602 1 L616 7 L630 1 L644 7 L658 1 L672 7 L686 1 L700 7 L714 1 L728 7 L742 1 L756 7 L770 1 L784 7 L798 1 L812 7 L826 1 L840 7 L854 1 L868 7 L882 1 L896 7 L910 1 L924 7 L938 1 L952 7 L966 1 L980 7" stroke="#000" stroke-width="2" fill="none"/>
</svg>
